<?xml version="1.0" encoding="UTF-8" standalone="no"?>
<svg width="1280px" height="800px" viewBox="0 0 1280 800" version="1.1" xmlns="http://www.w3.org/2000/svg" xmlns:xlink="http://www.w3.org/1999/xlink" xmlns:sketch="http://www.bohemiancoding.com/sketch/ns">
    <!-- Generator: Sketch 3.0.1 (7597) - http://www.bohemiancoding.com/sketch -->
    <title>Background</title>
    <description>Created with Sketch.</description>
    <defs></defs>
    <g id="Page-1" stroke="none" stroke-width="1" fill="none" fill-rule="evenodd" sketch:type="MSPage">
        <g id="Artboard-1" sketch:type="MSArtboardGroup">
            <g id="Background" sketch:type="MSLayerGroup" transform="translate(640.000000, 399.500000) scale(-1, 1) translate(-640.000000, -399.500000) translate(-143.000000, -176.000000)">
                <path d="M58.5331624,91.6636826 L13.2202151,219.290604 L204.034682,234.60941 L58.5331624,91.6636826 Z" id="Shape" stroke="#F5F5FB" fill="#F5F5FB" sketch:type="MSShapeGroup"></path>
                <path d="M58.5331624,91.6636826 L204.034682,234.60941 L239.054899,101.964761 L58.5331624,91.6636826 Z" id="Shape" stroke="#F2F2F9" fill="#F2F2F9" sketch:type="MSShapeGroup"></path>
                <path d="M239.054899,101.964761 L204.034682,234.60941 L283.889523,156.783555 L239.054899,101.964761 Z" id="Shape" stroke="#EAEDF6" fill="#EAEDF6" sketch:type="MSShapeGroup"></path>
                <path d="M526.403854,70.6159859 L283.889523,156.783555 L530.672742,251.799177 L526.403854,70.6159859 Z" id="Shape" stroke="#D9E2F0" fill="#D9E2F0" sketch:type="MSShapeGroup"></path>
                <path d="M526.403854,70.6159859 L530.672742,251.799177 L618.398055,234.025489 L526.403854,70.6159859 Z" id="Shape" stroke="#CADBED" fill="#CADBED" sketch:type="MSShapeGroup"></path>
                <path d="M526.403854,70.6159859 L618.398055,234.025489 L689.325649,44.3607412 L526.403854,70.6159859 Z" id="Shape" stroke="#C9DBEB" fill="#C9DBEB" sketch:type="MSShapeGroup"></path>
                <path d="M689.325649,44.3607412 L618.398055,234.025489 L721.203613,91.1134181 L689.325649,44.3607412 Z" id="Shape" stroke="#C2D8E9" fill="#C2D8E9" sketch:type="MSShapeGroup"></path>
                <path d="M721.203613,91.1134181 L618.398055,234.025489 L755.671829,216.515372 L721.203613,91.1134181 Z" id="Shape" stroke="#BBD5E9" fill="#BBD5E9" sketch:type="MSShapeGroup"></path>
                <path d="M721.203613,91.1134181 L755.671829,216.515372 L918.479182,169.830501 L721.203613,91.1134181 Z" id="Shape" stroke="#AECEE5" fill="#AECEE5" sketch:type="MSShapeGroup"></path>
                <path d="M990.321463,28.4277688 L918.479182,169.830501 L1053.4546,231.568938 L990.321463,28.4277688 Z" id="Shape" stroke="#8EBEDC" fill="#8EBEDC" sketch:type="MSShapeGroup"></path>
                <path d="M990.321463,28.4277688 L1053.4546,231.568938 L1094.09652,15.6158009 L990.321463,28.4277688 Z" id="Shape" stroke="#86BAD9" fill="#86BAD9" sketch:type="MSShapeGroup"></path>
                <path d="M1094.09652,15.6158009 L1053.4546,231.568938 L1183.01201,49.1151505 L1094.09652,15.6158009 Z" id="Shape" stroke="#80B4D6" fill="#80B4D6" sketch:type="MSShapeGroup"></path>
                <path d="M1183.01201,49.1151505 L1053.4546,231.568938 L1254.99586,242.107153 L1183.01201,49.1151505 Z" id="Shape" stroke="#7CADD3" fill="#7CADD3" sketch:type="MSShapeGroup"></path>
                <path d="M1183.01201,49.1151505 L1254.99586,242.107153 L1402.59223,68.6785086 L1183.01201,49.1151505 Z" id="Shape" stroke="#80A5CD" fill="#80A5CD" sketch:type="MSShapeGroup"></path>
                <path d="M1402.59223,68.6785086 L1254.99586,242.107153 L1408.5749,178.952097 L1402.59223,68.6785086 Z" id="Shape" stroke="#7D9CCA" fill="#7D9CCA" sketch:type="MSShapeGroup"></path>
                <path d="M1402.59223,68.6785086 L1408.5749,178.952097 L1504.48503,231.450183 L1402.59223,68.6785086 Z" id="Shape" stroke="#7D95C6" fill="#7D95C6" sketch:type="MSShapeGroup"></path>
                <path d="M1402.59223,68.6785086 L1504.48503,231.450183 L1496.66935,0.106932608 L1402.59223,68.6785086 Z" id="Shape" stroke="#8094C4" fill="#8094C4" sketch:type="MSShapeGroup"></path>
                <path d="M13.2202151,219.290604 L40.4540206,288.711812 L204.034682,234.60941 L13.2202151,219.290604 Z" id="Shape" stroke="#F0F3FB" fill="#F0F3FB" sketch:type="MSShapeGroup"></path>
                <path d="M204.034682,234.60941 L40.4540206,288.711812 L152.566698,403.900737 L204.034682,234.60941 Z" id="Shape" stroke="#E8EEFA" fill="#E8EEFA" sketch:type="MSShapeGroup"></path>
                <path d="M204.034682,234.60941 L152.566698,403.900737 L335.381315,390.653682 L204.034682,234.60941 Z" id="Shape" stroke="#DAE6F6" fill="#DAE6F6" sketch:type="MSShapeGroup"></path>
                <path d="M204.034682,234.60941 L335.381315,390.653682 L283.889523,156.783555 L204.034682,234.60941 Z" id="Shape" stroke="#E0E8F5" fill="#E0E8F5" sketch:type="MSShapeGroup"></path>
                <path d="M283.889523,156.783555 L335.381315,390.653682 L530.672742,251.799177 L283.889523,156.783555 Z" id="Shape" stroke="#D7E1F2" fill="#D7E1F2" sketch:type="MSShapeGroup"></path>
                <path d="M530.672742,251.799177 L335.381315,390.653682 L459.660494,382.143939 L530.672742,251.799177 Z" id="Shape" stroke="#C9DAEF" fill="#C9DAEF" sketch:type="MSShapeGroup"></path>
                <path d="M530.672742,251.799177 L459.660494,382.143939 L647.528207,378.665119 L530.672742,251.799177 Z" id="Shape" stroke="#BED5EC" fill="#BED5EC" sketch:type="MSShapeGroup"></path>
                <path d="M530.672742,251.799177 L647.528207,378.665119 L618.398055,234.025489 L530.672742,251.799177 Z" id="Shape" stroke="#BED5EB" fill="#BED5EB" sketch:type="MSShapeGroup"></path>
                <path d="M618.398055,234.025489 L647.528207,378.665119 L749.702278,287.492519 L618.398055,234.025489 Z" id="Shape" stroke="#B5D1E9" fill="#B5D1E9" sketch:type="MSShapeGroup"></path>
                <path d="M618.398055,234.025489 L749.702278,287.492519 L755.671829,216.515372 L618.398055,234.025489 Z" id="Shape" stroke="#B5D2E8" fill="#B5D2E8" sketch:type="MSShapeGroup"></path>
                <path d="M755.671829,216.515372 L749.702278,287.492519 L874.515805,327.433829 L755.671829,216.515372 Z" id="Shape" stroke="#A6CAE5" fill="#A6CAE5" sketch:type="MSShapeGroup"></path>
                <path d="M755.671829,216.515372 L874.515805,327.433829 L918.479182,169.830501 L755.671829,216.515372 Z" id="Shape" stroke="#9FC7E2" fill="#9FC7E2" sketch:type="MSShapeGroup"></path>
                <path d="M918.479182,169.830501 L874.515805,327.433829 L1053.4546,231.568938 L918.479182,169.830501 Z" id="Shape" stroke="#8EBEDD" fill="#8EBEDD" sketch:type="MSShapeGroup"></path>
                <path d="M1053.4546,231.568938 L874.515805,327.433829 L1105.66259,374.59662 L1053.4546,231.568938 Z" id="Shape" stroke="#7DB6DA" fill="#7DB6DA" sketch:type="MSShapeGroup"></path>
                <path d="M1053.4546,231.568938 L1105.66259,374.59662 L1254.99586,242.107153 L1053.4546,231.568938 Z" id="Shape" stroke="#74ABD4" fill="#74ABD4" sketch:type="MSShapeGroup"></path>
                <path d="M1254.99586,242.107153 L1105.66259,374.59662 L1269.64896,341.628416 L1254.99586,242.107153 Z" id="Shape" stroke="#71A3D1" fill="#71A3D1" sketch:type="MSShapeGroup"></path>
                <path d="M1254.99586,242.107153 L1269.64896,341.628416 L1408.5749,178.952097 L1254.99586,242.107153 Z" id="Shape" stroke="#769DCC" fill="#769DCC" sketch:type="MSShapeGroup"></path>
                <path d="M1408.5749,178.952097 L1269.64896,341.628416 L1340.19346,396.92959 L1408.5749,178.952097 Z" id="Shape" stroke="#7298CB" fill="#7298CB" sketch:type="MSShapeGroup"></path>
                <path d="M1408.5749,178.952097 L1340.19346,396.92959 L1504.48503,231.450183 L1408.5749,178.952097 Z" id="Shape" stroke="#7593C7" fill="#7593C7" sketch:type="MSShapeGroup"></path>
                <path d="M1504.48503,231.450183 L1340.19346,396.92959 L1474.21684,438.828275 L1504.48503,231.450183 Z" id="Shape" stroke="#698BC5" fill="#698BC5" sketch:type="MSShapeGroup"></path>
                <path d="M40.4540206,288.711812 L36.5195817,503.101844 L152.566698,403.900737 L40.4540206,288.711812 Z" id="Shape" stroke="#DBE9FA" fill="#DBE9FA" sketch:type="MSShapeGroup"></path>
                <path d="M152.566698,403.900737 L36.5195817,503.101844 L225.821465,467.093841 L152.566698,403.900737 Z" id="Shape" stroke="#C9E0F7" fill="#C9E0F7" sketch:type="MSShapeGroup"></path>
                <path d="M152.566698,403.900737 L225.821465,467.093841 L335.381315,390.653682 L152.566698,403.900737 Z" id="Shape" stroke="#C9DEF4" fill="#C9DEF4" sketch:type="MSShapeGroup"></path>
                <path d="M335.381315,390.653682 L225.821465,467.093841 L321.711261,462.579616 L335.381315,390.653682 Z" id="Shape" stroke="#C0D9F2" fill="#C0D9F2" sketch:type="MSShapeGroup"></path>
                <path d="M335.381315,390.653682 L321.711261,462.579616 L459.660494,382.143939 L335.381315,390.653682 Z" id="Shape" stroke="#C0D7F0" fill="#C0D7F0" sketch:type="MSShapeGroup"></path>
                <path d="M459.660494,382.143939 L321.711261,462.579616 L450.527278,542.471557 L459.660494,382.143939 Z" id="Shape" stroke="#B1D0EE" fill="#B1D0EE" sketch:type="MSShapeGroup"></path>
                <path d="M459.660494,382.143939 L450.527278,542.471557 L590.07017,540.808411 L459.660494,382.143939 Z" id="Shape" stroke="#A2C9EB" fill="#A2C9EB" sketch:type="MSShapeGroup"></path>
                <path d="M459.660494,382.143939 L590.07017,540.808411 L647.528207,378.665119 L459.660494,382.143939 Z" id="Shape" stroke="#A7CBEA" fill="#A7CBEA" sketch:type="MSShapeGroup"></path>
                <path d="M647.528207,378.665119 L590.07017,540.808411 L666.578142,590.436313 L647.528207,378.665119 Z" id="Shape" stroke="#90C0E7" fill="#90C0E7" sketch:type="MSShapeGroup"></path>
                <path d="M647.528207,378.665119 L666.578142,590.436313 L828.140489,459.798045 L647.528207,378.665119 Z" id="Shape" stroke="#8CBFE5" fill="#8CBFE5" sketch:type="MSShapeGroup"></path>
                <path d="M647.528207,378.665119 L828.140489,459.798045 L749.702278,287.492519 L647.528207,378.665119 Z" id="Shape" stroke="#9FC7E6" fill="#9FC7E6" sketch:type="MSShapeGroup"></path>
                <path d="M749.702278,287.492519 L828.140489,459.798045 L874.515805,327.433829 L749.702278,287.492519 Z" id="Shape" stroke="#96C3E3" fill="#96C3E3" sketch:type="MSShapeGroup"></path>
                <path d="M874.515805,327.433829 L828.140489,459.798045 L963.885621,530.156928 L874.515805,327.433829 Z" id="Shape" stroke="#78B5DE" fill="#78B5DE" sketch:type="MSShapeGroup"></path>
                <path d="M874.515805,327.433829 L963.885621,530.156928 L1105.66259,374.59662 L874.515805,327.433829 Z" id="Shape" stroke="#6EAFDA" fill="#6EAFDA" sketch:type="MSShapeGroup"></path>
                <path d="M1105.66259,374.59662 L963.885621,530.156928 L1108.32885,457.22554 L1105.66259,374.59662 Z" id="Shape" stroke="#57A4D6" fill="#57A4D6" sketch:type="MSShapeGroup"></path>
                <path d="M1105.66259,374.59662 L1108.32885,457.22554 L1196.64501,450.01404 L1105.66259,374.59662 Z" id="Shape" stroke="#5A9FD2" fill="#5A9FD2" sketch:type="MSShapeGroup"></path>
                <path d="M1105.66259,374.59662 L1196.64501,450.01404 L1269.64896,341.628416 L1105.66259,374.59662 Z" id="Shape" stroke="#629FD0" fill="#629FD0" sketch:type="MSShapeGroup"></path>
                <path d="M1269.64896,341.628416 L1196.64501,450.01404 L1340.19346,396.92959 L1269.64896,341.628416 Z" id="Shape" stroke="#6097CC" fill="#6097CC" sketch:type="MSShapeGroup"></path>
                <path d="M1340.19346,396.92959 L1196.64501,450.01404 L1412.09406,511.581219 L1340.19346,396.92959 Z" id="Shape" stroke="#548DC9" fill="#548DC9" sketch:type="MSShapeGroup"></path>
                <path d="M1340.19346,396.92959 L1412.09406,511.581219 L1474.21684,438.828275 L1340.19346,396.92959 Z" id="Shape" stroke="#5585C5" fill="#5585C5" sketch:type="MSShapeGroup"></path>
                <path d="M36.5195817,503.101844 L77.0996663,595.281274 L225.821465,467.093841 L36.5195817,503.101844 Z" id="Shape" stroke="#BDDBF7" fill="#BDDBF7" sketch:type="MSShapeGroup"></path>
                <path d="M225.821465,467.093841 L77.0996663,595.281274 L151.734211,635.408976 L225.821465,467.093841 Z" id="Shape" stroke="#AFD2F1" fill="#AFD2F1" sketch:type="MSShapeGroup"></path>
                <path d="M225.821465,467.093841 L151.734211,635.408976 L346.404727,647.361578 L225.821465,467.093841 Z" id="Shape" stroke="#A3C9EC" fill="#A3C9EC" sketch:type="MSShapeGroup"></path>
                <path d="M225.821465,467.093841 L346.404727,647.361578 L321.711261,462.579616 L225.821465,467.093841 Z" id="Shape" stroke="#ADD0F0" fill="#ADD0F0" sketch:type="MSShapeGroup"></path>
                <path d="M321.711261,462.579616 L346.404727,647.361578 L428.504632,593.882115 L321.711261,462.579616 Z" id="Shape" stroke="#9DC5EA" fill="#9DC5EA" sketch:type="MSShapeGroup"></path>
                <path d="M321.711261,462.579616 L428.504632,593.882115 L450.527278,542.471557 L321.711261,462.579616 Z" id="Shape" stroke="#A3C9EC" fill="#A3C9EC" sketch:type="MSShapeGroup"></path>
                <path d="M450.527278,542.471557 L428.504632,593.882115 L590.07017,540.808411 L450.527278,542.471557 Z" id="Shape" stroke="#92C0E7" fill="#92C0E7" sketch:type="MSShapeGroup"></path>
                <path d="M590.07017,540.808411 L428.504632,593.882115 L666.578142,590.436313 L590.07017,540.808411 Z" id="Shape" stroke="#86B9E3" fill="#86B9E3" sketch:type="MSShapeGroup"></path>
                <path d="M828.140489,459.798045 L666.578142,590.436313 L874.122703,668.915591 L828.140489,459.798045 Z" id="Shape" stroke="#6AACDC" fill="#6AACDC" sketch:type="MSShapeGroup"></path>
                <path d="M828.140489,459.798045 L874.122703,668.915591 L963.885621,530.156928 L828.140489,459.798045 Z" id="Shape" stroke="#5EA7D9" fill="#5EA7D9" sketch:type="MSShapeGroup"></path>
                <path d="M963.885621,530.156928 L874.122703,668.915591 L1074.06082,644.94124 L963.885621,530.156928 Z" id="Shape" stroke="#4095D0" fill="#4095D0" sketch:type="MSShapeGroup"></path>
                <path d="M963.885621,530.156928 L1074.06082,644.94124 L1108.32885,457.22554 L963.885621,530.156928 Z" id="Shape" stroke="#459AD3" fill="#459AD3" sketch:type="MSShapeGroup"></path>
                <path d="M1108.32885,457.22554 L1074.06082,644.94124 L1174.37833,640.20077 L1108.32885,457.22554 Z" id="Shape" stroke="#368ECC" fill="#368ECC" sketch:type="MSShapeGroup"></path>
                <path d="M1108.32885,457.22554 L1174.37833,640.20077 L1196.64501,450.01404 L1108.32885,457.22554 Z" id="Shape" stroke="#4695CF" fill="#4695CF" sketch:type="MSShapeGroup"></path>
                <path d="M1196.64501,450.01404 L1174.37833,640.20077 L1412.09406,511.581219 L1196.64501,450.01404 Z" id="Shape" stroke="#4289C9" fill="#4289C9" sketch:type="MSShapeGroup"></path>
                <path d="M1412.09406,511.581219 L1174.37833,640.20077 L1409.17589,660.618664 L1412.09406,511.581219 Z" id="Shape" stroke="#3077BF" fill="#3077BF" sketch:type="MSShapeGroup"></path>
                <path d="M1412.09406,511.581219 L1409.17589,660.618664 L1514.04026,686.988502 L1412.09406,511.581219 Z" id="Shape" stroke="#2C6AB8" fill="#2C6AB8" sketch:type="MSShapeGroup"></path>
                <path d="M1412.09406,511.581219 L1514.04026,686.988502 L1474.21684,438.828275 L1412.09406,511.581219 Z" id="Shape" stroke="#3F75BE" fill="#3F75BE" sketch:type="MSShapeGroup"></path>
                <path d="M77.0996663,595.281274 L79.4482956,793.45632 L151.734211,635.408976 L77.0996663,595.281274 Z" id="Shape" stroke="#97C2E9" fill="#97C2E9" sketch:type="MSShapeGroup"></path>
                <path d="M151.734211,635.408976 L79.4482956,793.45632 L183.23567,799.824175 L151.734211,635.408976 Z" id="Shape" stroke="#82B4E1" fill="#82B4E1" sketch:type="MSShapeGroup"></path>
                <path d="M151.734211,635.408976 L183.23567,799.824175 L346.404727,647.361578 L151.734211,635.408976 Z" id="Shape" stroke="#87B7E3" fill="#87B7E3" sketch:type="MSShapeGroup"></path>
                <path d="M346.404727,647.361578 L183.23567,799.824175 L346.808688,764.158807 L346.404727,647.361578 Z" id="Shape" stroke="#77ACDD" fill="#77ACDD" sketch:type="MSShapeGroup"></path>
                <path d="M346.404727,647.361578 L346.808688,764.158807 L428.504632,593.882115 L346.404727,647.361578 Z" id="Shape" stroke="#82B3E0" fill="#82B3E0" sketch:type="MSShapeGroup"></path>
                <path d="M428.504632,593.882115 L346.808688,764.158807 L535.421616,844.324866 L428.504632,593.882115 Z" id="Shape" stroke="#6CA5D8" fill="#6CA5D8" sketch:type="MSShapeGroup"></path>
                <path d="M428.504632,593.882115 L535.421616,844.324866 L666.578142,590.436313 L428.504632,593.882115 Z" id="Shape" stroke="#6EA9DA" fill="#6EA9DA" sketch:type="MSShapeGroup"></path>
                <path d="M666.578142,590.436313 L535.421616,844.324866 L645.365963,822.241517 L666.578142,590.436313 Z" id="Shape" stroke="#5398D1" fill="#5398D1" sketch:type="MSShapeGroup"></path>
                <path d="M666.578142,590.436313 L645.365963,822.241517 L723.588934,777.045305 L666.578142,590.436313 Z" id="Shape" stroke="#5199D2" fill="#5199D2" sketch:type="MSShapeGroup"></path>
                <path d="M666.578142,590.436313 L723.588934,777.045305 L838.099477,703.119931 L666.578142,590.436313 Z" id="Shape" stroke="#549CD4" fill="#549CD4" sketch:type="MSShapeGroup"></path>
                <path d="M666.578142,590.436313 L838.099477,703.119931 L874.122703,668.915591 L666.578142,590.436313 Z" id="Shape" stroke="#559FD4" fill="#559FD4" sketch:type="MSShapeGroup"></path>
                <path d="M838.099477,703.119931 L723.588934,777.045305 L891.936909,758.973317 L838.099477,703.119931 Z" id="Shape" stroke="#398CCB" fill="#398CCB" sketch:type="MSShapeGroup"></path>
                <path d="M838.099477,703.119931 L891.936909,758.973317 L874.122703,668.915591 L838.099477,703.119931 Z" id="Shape" stroke="#398ECC" fill="#398ECC" sketch:type="MSShapeGroup"></path>
                <path d="M874.122703,668.915591 L891.936909,758.973317 L1074.06082,644.94124 L874.122703,668.915591 Z" id="Shape" stroke="#308ACA" fill="#308ACA" sketch:type="MSShapeGroup"></path>
                <path d="M1074.06082,644.94124 L891.936909,758.973317 L1086.44535,780.322603 L1074.06082,644.94124 Z" id="Shape" stroke="#1B7EC3" fill="#1B7EC3" sketch:type="MSShapeGroup"></path>
                <path d="M1074.06082,644.94124 L1086.44535,780.322603 L1174.37833,640.20077 L1074.06082,644.94124 Z" id="Shape" stroke="#1A7CC2" fill="#1A7CC2" sketch:type="MSShapeGroup"></path>
                <path d="M1174.37833,640.20077 L1086.44535,780.322603 L1229.1848,835.531471 L1174.37833,640.20077 Z" id="Shape" stroke="#0A6DBA" fill="#0A6DBA" sketch:type="MSShapeGroup"></path>
                <path d="M1174.37833,640.20077 L1229.1848,835.531471 L1353.87261,778.888156 L1174.37833,640.20077 Z" id="Shape" stroke="#0A65B5" fill="#0A65B5" sketch:type="MSShapeGroup"></path>
                <path d="M1174.37833,640.20077 L1353.87261,778.888156 L1409.17589,660.618664 L1174.37833,640.20077 Z" id="Shape" stroke="#1969B8" fill="#1969B8" sketch:type="MSShapeGroup"></path>
                <path d="M1409.17589,660.618664 L1353.87261,778.888156 L1514.04026,686.988502 L1409.17589,660.618664 Z" id="Shape" stroke="#155DB1" fill="#155DB1" sketch:type="MSShapeGroup"></path>
                <path d="M1514.04026,686.988502 L1353.87261,778.888156 L1559.99505,813.762506 L1514.04026,686.988502 Z" id="Shape" stroke="#0850AA" fill="#0850AA" sketch:type="MSShapeGroup"></path>
                <path d="M79.4482956,793.45632 L-0.138804955,956.084382 L240.084164,972.650794 L79.4482956,793.45632 Z" id="Shape" stroke="#799AD3" fill="#799AD3" sketch:type="MSShapeGroup"></path>
                <path d="M79.4482956,793.45632 L240.084164,972.650794 L183.23567,799.824175 L79.4482956,793.45632 Z" id="Shape" stroke="#749FD6" fill="#749FD6" sketch:type="MSShapeGroup"></path>
                <path d="M183.23567,799.824175 L240.084164,972.650794 L287.761845,947.119235 L183.23567,799.824175 Z" id="Shape" stroke="#6E93CF" fill="#6E93CF" sketch:type="MSShapeGroup"></path>
                <path d="M183.23567,799.824175 L287.761845,947.119235 L346.808688,764.158807 L183.23567,799.824175 Z" id="Shape" stroke="#6B9DD4" fill="#6B9DD4" sketch:type="MSShapeGroup"></path>
                <path d="M346.808688,764.158807 L287.761845,947.119235 L513.761663,936.804446 L346.808688,764.158807 Z" id="Shape" stroke="#628ECC" fill="#628ECC" sketch:type="MSShapeGroup"></path>
                <path d="M346.808688,764.158807 L513.761663,936.804446 L535.421616,844.324866 L346.808688,764.158807 Z" id="Shape" stroke="#5A90CD" fill="#5A90CD" sketch:type="MSShapeGroup"></path>
                <path d="M535.421616,844.324866 L513.761663,936.804446 L571.366326,891.562649 L535.421616,844.324866 Z" id="Shape" stroke="#5285C7" fill="#5285C7" sketch:type="MSShapeGroup"></path>
                <path d="M535.421616,844.324866 L571.366326,891.562649 L645.365963,822.241517 L535.421616,844.324866 Z" id="Shape" stroke="#4D89C9" fill="#4D89C9" sketch:type="MSShapeGroup"></path>
                <path d="M645.365963,822.241517 L571.366326,891.562649 L824.033866,909.184691 L645.365963,822.241517 Z" id="Shape" stroke="#4281C5" fill="#4281C5" sketch:type="MSShapeGroup"></path>
                <path d="M645.365963,822.241517 L824.033866,909.184691 L723.588934,777.045305 L645.365963,822.241517 Z" id="Shape" stroke="#3C85C7" fill="#3C85C7" sketch:type="MSShapeGroup"></path>
                <path d="M723.588934,777.045305 L824.033866,909.184691 L891.936909,758.973317 L723.588934,777.045305 Z" id="Shape" stroke="#2F81C5" fill="#2F81C5" sketch:type="MSShapeGroup"></path>
                <path d="M891.936909,758.973317 L824.033866,909.184691 L950.376296,973.76846 L891.936909,758.973317 Z" id="Shape" stroke="#2170BB" fill="#2170BB" sketch:type="MSShapeGroup"></path>
                <path d="M891.936909,758.973317 L950.376296,973.76846 L1053.32169,892.665978 L891.936909,758.973317 Z" id="Shape" stroke="#146AB8" fill="#146AB8" sketch:type="MSShapeGroup"></path>
                <path d="M891.936909,758.973317 L1053.32169,892.665978 L1086.44535,780.322603 L891.936909,758.973317 Z" id="Shape" stroke="#0C71BB" fill="#0C71BB" sketch:type="MSShapeGroup"></path>
                <path d="M1086.44535,780.322603 L1053.32169,892.665978 L1229.1848,835.531471 L1086.44535,780.322603 Z" id="Shape" stroke="#0062B4" fill="#0062B4" sketch:type="MSShapeGroup"></path>
                <path d="M1229.1848,835.531471 L1053.32169,892.665978 L1223.35771,968.560389 L1229.1848,835.531471 Z" id="Shape" stroke="#0054AC" fill="#0054AC" sketch:type="MSShapeGroup"></path>
                <path d="M1229.1848,835.531471 L1223.35771,968.560389 L1376.77202,998.864068 L1229.1848,835.531471 Z" id="Shape" stroke="#0044A4" fill="#0044A4" sketch:type="MSShapeGroup"></path>
                <path d="M1229.1848,835.531471 L1376.77202,998.864068 L1353.87261,778.888156 L1229.1848,835.531471 Z" id="Shape" stroke="#004BA7" fill="#004BA7" sketch:type="MSShapeGroup"></path>
                <path d="M1353.87261,778.888156 L1376.77202,998.864068 L1553.5305,936.756958 L1353.87261,778.888156 Z" id="Shape" stroke="#003B9F" fill="#003B9F" sketch:type="MSShapeGroup"></path>
                <path d="M1353.87261,778.888156 L1553.5305,936.756958 L1559.99505,813.762506 L1353.87261,778.888156 Z" id="Shape" stroke="#0040A1" fill="#0040A1" sketch:type="MSShapeGroup"></path>
                <path d="M-0.138804955,956.084382 L50.2194119,1150.72936 L216.281568,1058.25365 L-0.138804955,956.084382 Z" id="Shape" stroke="#7A82C6" fill="#7A82C6" sketch:type="MSShapeGroup"></path>
                <path d="M-0.138804955,956.084382 L216.281568,1058.25365 L240.084164,972.650794 L-0.138804955,956.084382 Z" id="Shape" stroke="#7589C9" fill="#7589C9" sketch:type="MSShapeGroup"></path>
                <path d="M240.084164,972.650794 L216.281568,1058.25365 L329.66212,1085.41481 L240.084164,972.650794 Z" id="Shape" stroke="#6C7BC2" fill="#6C7BC2" sketch:type="MSShapeGroup"></path>
                <path d="M240.084164,972.650794 L329.66212,1085.41481 L287.761845,947.119235 L240.084164,972.650794 Z" id="Shape" stroke="#6A80C4" fill="#6A80C4" sketch:type="MSShapeGroup"></path>
                <path d="M287.761845,947.119235 L329.66212,1085.41481 L513.761663,936.804446 L287.761845,947.119235 Z" id="Shape" stroke="#637DC2" fill="#637DC2" sketch:type="MSShapeGroup"></path>
                <path d="M513.761663,936.804446 L329.66212,1085.41481 L526.391922,1111.51523 L513.761663,936.804446 Z" id="Shape" stroke="#5B6FBB" fill="#5B6FBB" sketch:type="MSShapeGroup"></path>
                <path d="M513.761663,936.804446 L526.391922,1111.51523 L632.236034,1101.41085 L513.761663,936.804446 Z" id="Shape" stroke="#5069B8" fill="#5069B8" sketch:type="MSShapeGroup"></path>
                <path d="M513.761663,936.804446 L632.236034,1101.41085 L571.366326,891.562649 L513.761663,936.804446 Z" id="Shape" stroke="#4E74BE" fill="#4E74BE" sketch:type="MSShapeGroup"></path>
                <path d="M571.366326,891.562649 L632.236034,1101.41085 L824.033866,909.184691 L571.366326,891.562649 Z" id="Shape" stroke="#4271BC" fill="#4271BC" sketch:type="MSShapeGroup"></path>
                <path d="M824.033866,909.184691 L632.236034,1101.41085 L832.282645,1113.14253 L824.033866,909.184691 Z" id="Shape" stroke="#375FB2" fill="#375FB2" sketch:type="MSShapeGroup"></path>
                <path d="M824.033866,909.184691 L832.282645,1113.14253 L950.376296,973.76846 L824.033866,909.184691 Z" id="Shape" stroke="#255DB1" fill="#255DB1" sketch:type="MSShapeGroup"></path>
                <path d="M950.376296,973.76846 L832.282645,1113.14253 L913.33187,1137.85785 L950.376296,973.76846 Z" id="Shape" stroke="#204EA9" fill="#204EA9" sketch:type="MSShapeGroup"></path>
                <path d="M950.376296,973.76846 L913.33187,1137.85785 L1090.19816,1061.34604 L950.376296,973.76846 Z" id="Shape" stroke="#1149A6" fill="#1149A6" sketch:type="MSShapeGroup"></path>
                <path d="M950.376296,973.76846 L1090.19816,1061.34604 L1053.32169,892.665978 L950.376296,973.76846 Z" id="Shape" stroke="#0952AB" fill="#0952AB" sketch:type="MSShapeGroup"></path>
                <path d="M1053.32169,892.665978 L1090.19816,1061.34604 L1223.35771,968.560389 L1053.32169,892.665978 Z" id="Shape" stroke="#004BA7" fill="#004BA7" sketch:type="MSShapeGroup"></path>
                <path d="M1223.35771,968.560389 L1090.19816,1061.34604 L1239.50147,1087.47203 L1223.35771,968.560389 Z" id="Shape" stroke="#003A9E" fill="#003A9E" sketch:type="MSShapeGroup"></path>
                <path d="M1223.35771,968.560389 L1239.50147,1087.47203 L1376.77202,998.864068 L1223.35771,968.560389 Z" id="Shape" stroke="#00359B" fill="#00359B" sketch:type="MSShapeGroup"></path>
                <path d="M1376.77202,998.864068 L1502.97622,1119.62411 L1553.5305,936.756958 L1376.77202,998.864068 Z" id="Shape" stroke="#002492" fill="#002492" sketch:type="MSShapeGroup"></path>
            </g>
        </g>
    </g>
</svg>