<?xml version="1.0" encoding="UTF-8" standalone="no"?>
<svg width="36px" height="30px" viewBox="0 0 36 30" version="1.1" xmlns="http://www.w3.org/2000/svg" xmlns:xlink="http://www.w3.org/1999/xlink" xmlns:sketch="http://www.bohemiancoding.com/sketch/ns">
    <!-- Generator: Sketch 3.0.1 (7597) - http://www.bohemiancoding.com/sketch -->
    <title>twitter</title>
    <description>Created with Sketch.</description>
    <defs></defs>
    <g id="Page-1" stroke="none" stroke-width="1" fill="none" fill-rule="evenodd" sketch:type="MSPage">
        <g id="Artboard-1" sketch:type="MSArtboardGroup" transform="translate(-75.000000, -547.000000)" fill="#FFFFFF">
            <path d="M111.000094,550.458342 C109.666758,551.041677 108.250087,551.458345 106.750083,551.625012 C108.291754,550.708343 109.458424,549.250006 110.000092,547.541668 C108.583421,548.375004 107.000084,549.000005 105.333413,549.333339 C103.958409,547.916669 102.041738,547 99.916732,547 C95.833388,547 92.5417127,550.291675 92.5417127,554.375019 C92.5417127,554.958354 92.5833794,555.541689 92.7083798,556.083357 C86.5833637,555.750023 81.1666828,552.958349 77.5000066,548.500004 C76.8750049,549.58334 76.5000039,550.708343 76.5000039,552.083347 C76.5000039,554.62502 77.791674,556.875026 79.7916792,558.208363 C78.5833427,558.166696 77.4583398,557.833362 76.4583372,557.291694 L76.4583372,557.375027 C76.4583372,560.95837 79.0000105,563.958378 82.3750193,564.625046 C81.7500177,564.791713 81.0833493,564.875047 80.4166809,564.875047 C79.9583463,564.875047 79.5000118,564.83338 79.0416773,564.750047 C79.9583463,567.666721 82.7083535,569.833393 85.9166953,569.87506 C83.4166887,571.875065 80.208347,573.375069 76.7500046,573.375069 C76.1666697,573.375069 75.5833349,573.333402 75,573.250069 C78.2500085,575.333408 82.1666855,576.250077 86.3333631,576.250077 C99.916732,576.250077 107.333418,565.000047 107.333418,555.250022 L107.333418,554.291686 C108.750089,553.250016 110.000092,551.958346 111.000094,550.458342 L111.000094,550.458342 Z" id="twitter" sketch:type="MSShapeGroup"></path>
        </g>
    </g>
</svg>